PathFileType	4	(X/Y/Z)	E:\Qualisys_Data\Carbon_Farble_Plate\Data\Amateur_Runner\S2\T1\S2T1V23_c3d.trc
DataRate	CameraRate	NumFrames	NumMarkers	Units	OrigDataRate	OrigDataStartFrame	OrigNumFrames
200.000000	200.000000	4	39	mm	200.000000	196	314
Frame#	Time	LSHO			RSHO			LICST			RICST			LASIS			LHEEL			RASIS			LTROC			RTROC			SACR			LTH1			LSK4			LTH2			LTH3			RHM5			LSK2			LTH4			RTH1			LTOE			RTH2			RTH3			RTH4			LLEP			RLEP			LSK1			LSK3			RSK1			LHM5			RSK2			LFT1			RSK3			RSK4			LLME			RLME			RTOE			RHEEL			RFT1			RFT2			LFT2			
		X1	Y1	Z1	X2	Y2	Z2	X3	Y3	Z3	X4	Y4	Z4	X5	Y5	Z5	X6	Y6	Z6	X7	Y7	Z7	X8	Y8	Z8	X9	Y9	Z9	X10	Y10	Z10	X11	Y11	Z11	X12	Y12	Z12	X13	Y13	Z13	X14	Y14	Z14	X15	Y15	Z15	X16	Y16	Z16	X17	Y17	Z17	X18	Y18	Z18	X19	Y19	Z19	X20	Y20	Z20	X21	Y21	Z21	X22	Y22	Z22	X23	Y23	Z23	X24	Y24	Z24	X25	Y25	Z25	X26	Y26	Z26	X27	Y27	Z27	X28	Y28	Z28	X29	Y29	Z29	X30	Y30	Z30	X31	Y31	Z31	X32	Y32	Z32	X33	Y33	Z33	X34	Y34	Z34	X35	Y35	Z35	X36	Y36	Z36	X37	Y37	Z37	X38	Y38	Z38	X39	Y39	Z39	

197	0.98	724.6814575195312	1456.692260742188	-438.9713745117188	768.626708984375	1426.782470703125	-136.7444458007812	685.1627807617188	995.2595825195312	-447.5320739746094	695.3616333007812	966.2752685546876	-145.7353210449219	743.701171875	946.4461669921876	-427.0454406738281	557.6581420898438	362.59423828125	-348.8954467773438	750.462646484375	918.5892944335938	-168.0619201660156	632.0640869140625	871.4862670898438	-461.3614807128906	591.2731323242188	878.323974609375	-152.6576232910156	599.8850708007812	1023.635681152344	-289.0465698242188	878.0592651367188	721.1333618164062	-449.76904296875	725.4988403320312	461.2425537109375	-430.4140014648438	811.877685546875	670.3338012695312	-461.0189819335938	936.992919921875	638.7356567382812	-428.4524536132812	359.8818969726562	61.77760696411133	-182.2599945068359	806.7705078125	518.9906005859375	-441.5643920898438	867.2308349609375	589.1105346679688	-433.8712768554688	650.3557739257812	601.0396118164062	-148.428466796875	711.8557739257812	172.7995758056641	-362.4490051269531	576.4540405273438	626.4303588867188	-147.1857299804688	617.2122192382812	506.9899291992188	-171.3535766601562	542.2573852539062	536.602783203125	-165.2631530761719	916.3347778320312	568.72314453125	-433.638671875	554.9595947265625	490.6911926269531	-161.9199523925781	852.284423828125	455.6795654296875	-430.1212768554688	771.361083984375	397.6050720214844	-420.6444091796875	510.6921691894531	373.1857299804688	-163.4512939453125	662.6815795898438	196.9073181152344	-426.5803833007812	448.2656555175781	423.2470092773438	-154.5784912109375	551.3001098632812	339.0655517578125	-317.274169921875	447.024169921875	293.7360229492188	-175.4239807128906	386.7919921875	345.6918640136719	-170.0734710693359	605.4324340820312	325.1021118164062	-402.8644104003906	298.2075805664062	173.7297210693359	-206.3244323730469	411.1072998046875	51.84259033203125	-245.8774871826172	234.4290771484375	193.3358001708984	-264.5224609375	235.6242218017578	164.44921875	-295.7287292480469	220.2832641601562	172.0574340820312	-240.1874389648438	537.3676147460938	341.2933654785156	-373.7947082519531
198	0.985	741.9574584960938	1461.540405273438	-438.8246459960938	789.6856079101562	1432.598266601562	-137.9764709472656	707.5117797851562	1000.509216308594	-447.1376647949219	719.552001953125	970.4894409179688	-145.9264068603516	765.5911254882812	951.2079467773438	-427.0349426269531	590.4520263671875	348.6297302246094	-346.9837341308594	773.5693969726562	922.1227416992188	-168.6432952880859	655.4216918945312	877.1423950195312	-461.7568664550781	613.5878295898438	883.6830444335938	-151.8946838378906	622.3505249023438	1028.18896484375	-288.3625183105469	901.7042236328124	726.400390625	-448.69384765625	752.7245483398438	456.4664611816406	-429.06005859375	835.9833984375	675.7173461914062	-461.2742614746094	960.9844970703124	643.9197387695312	-427.3751525878906	362.757568359375	63.27108383178711	-180.8846282958984	831.0977172851562	518.2952880859375	-440.9015808105469	890.9924926757812	594.3331298828125	-433.9162292480469	666.619873046875	606.343505859375	-148.3698425292969	755.2655029296875	168.3484344482422	-363.9285583496094	593.43310546875	633.679443359375	-146.0961608886719	630.9852905273438	513.3621826171875	-170.9757080078125	556.8279418945312	544.4863891601562	-164.2151794433594	939.8551635742188	573.917724609375	-432.8243103027344	567.8790283203125	498.5563354492188	-161.2283325195312	879.584716796875	457.1940002441406	-429.7979736328125	801.4949951171875	395.2021484375	-420.4441223144531	521.2896118164062	381.9949645996094	-161.8204193115234	703.9927978515625	190.5255279541016	-427.6357421875	458.5975952148438	431.5270690917969	-153.2014465332031	584.9405517578125	324.2294311523438	-315.7317810058594	458.5584411621094	302.2770080566406	-172.7764892578125	397.8851318359375	353.8133239746094	-168.0015869140625	639.7095336914062	314.8303833007812	-402.07958984375	309.0818176269531	180.8056488037109	-203.8878631591797	414.4562683105469	51.95246124267578	-244.1655426025391	247.1043548583984	204.4260711669922	-262.7285461425781	247.8380737304688	176.3196411132812	-294.4352416992188	232.4665069580078	183.7424926757812	-238.6782379150391	571.2941284179688	326.3841552734375	-370.9247741699219
199	0.99	759.4988403320312	1466.655029296875	-438.3434448242188	810.446044921875	1437.799560546875	-139.636474609375	729.226318359375	1005.545471191406	-446.4705810546875	743.5640869140625	974.3079833984376	-146.0095062255859	787.8993530273438	956.074462890625	-426.7327270507812	623.4879150390625	334.0572509765625	-345.1369934082031	797.0070190429688	925.85302734375	-169.2181243896484	678.498779296875	882.47509765625	-462.1072998046875	635.613525390625	889.4844360351562	-151.474365234375	645.156005859375	1031.907592773438	-287.0700378417969	925.4223022460938	731.3466796875	-447.8910217285156	780.1968383789062	451.2912902832031	-428.2278442382812	859.8211669921875	681.0715942382812	-461.0800170898438	984.18798828125	648.6685180664062	-425.8490600585938	366.7247924804688	64.94625854492188	-180.033935546875	854.9307250976562	517.012939453125	-440.2872314453125	914.4270629882812	600.0143432617188	-434.4110412597656	682.7263793945312	611.4225463867188	-148.5152435302734	798.8057861328125	164.47900390625	-365.7396850585938	610.1339721679688	640.9290161132812	-145.1766510009766	644.5946044921875	519.3515014648438	-170.8978881835938	571.0128173828125	552.9392700195312	-163.2979583740234	962.9146728515624	578.853271484375	-432.0618591308594	581.068359375	506.0900573730469	-160.3754730224609	906.7525024414062	458.780517578125	-429.7884826660156	832.10009765625	392.572265625	-420.1179504394531	533.4163818359375	390.9201965332031	-159.6852111816406	745.2435302734375	184.3638763427734	-428.11572265625	469.9727172851562	440.3695373535156	-151.6164245605469	618.2933349609375	308.0003356933594	-315.3143920898438	470.072998046875	310.5830383300781	-170.3434600830078	409.5578918457031	362.3194274902344	-166.1436004638672	674.3875732421875	304.0301208496094	-400.4551696777344	321.1163330078125	187.995361328125	-201.5800476074219	418.7163696289062	52.04164886474609	-242.4919891357422	261.92333984375	215.6840667724609	-260.6430969238281	261.2688293457031	188.5446319580078	-293.1514282226562	245.5071716308594	196.0906219482422	-237.5350189208984	606.998779296875	310.95361328125	-367.6153259277344
200	0.995	777.3814086914062	1471.346313476562	-437.9510803222656	831.4000244140625	1443.102416992188	-140.8339233398438	751.653076171875	1010.41650390625	-446.4601440429688	767.0631103515625	978.5542602539062	-146.2447052001953	809.7512817382812	960.3423461914062	-426.6529235839844	658.0568237304688	320.5758361816406	-342.4952697753906	820.1161499023438	929.6254272460938	-169.5442810058594	701.4583129882812	887.9605712890625	-463.1117248535156	658.294189453125	895.1454467773438	-150.7314605712891	667.5924072265625	1036.315307617188	-286.3802185058594	948.9291381835938	735.5963134765625	-447.0204772949219	807.4359741210938	445.6004333496094	-427.3789672851562	883.7630615234375	685.65771484375	-461.3544311523438	1007.212951660156	653.2049560546875	-425.0034790039062	371.6227416992188	67.56044006347656	-178.7877502441406	878.638671875	515.1973876953125	-439.6432495117188	938.005859375	604.4500122070312	-434.4348449707031	698.86328125	616.732666015625	-148.2158966064453	841.6060180664062	161.3860168457031	-367.4232788085938	627.2360229492188	648.1136474609375	-143.7347412109375	658.37841796875	526.0076904296875	-170.3542938232422	585.644287109375	560.7651977539062	-162.5309448242188	985.0464477539062	582.6405639648438	-432.1174011230469	593.8804931640625	514.8216552734375	-159.3078308105469	933.419921875	459.5507507324219	-429.8126525878906	862.1500854492188	389.60205078125	-420.0977783203125	545.4429321289062	399.4347229003906	-158.1676330566406	786.3724365234375	178.4639587402344	-428.9288024902344	482.1981201171875	449.1272888183594	-150.5610046386719	653.5630493164062	293.4431457519531	-313.9251098632812	483.3388061523438	319.0499267578125	-167.5951843261719	422.3313903808594	370.1121215820312	-164.8585815429688	708.9881591796875	293.9973449707031	-399.4271545410156	333.7779541015625	195.1204986572266	-199.3738555908203	422.905029296875	51.41470336914062	-240.2199859619141	281.9831848144531	228.16650390625	-257.4262084960938	275.9407653808594	200.8399810791016	-291.9927368164062	260.2156677246094	209.2339935302734	-235.6488647460938	640.8875732421875	296.8603210449219	-366.0184326171875
